<?xml version="1.0" encoding="UTF-8"?>
<svg width="16" height="16" viewBox="0 0 16 16" xmlns="http://www.w3.org/2000/svg">
  <clipPath id="clipPath">
    <path d="M 4 4 L 5 4 L 5 12 L 7 12 L 7 2 L 3 2 L 3 14 L 8 14 L 8 13 L 7 13 L 7 15 L 4 15 L 4 13 L 2 13 L 2 3 L 8 3 L 8 11 L 4 11 L 4 4 Z M 9 9 L 11 9 L 11 11 L 12 11 L 12 9 L 14 9 L 14 8 L 12 8 L 12 6 L 11 6 L 11 8 L 9 8 L 9 9 Z" fill="black" />
  </clipPath>
  <path d="M 4 4 L 5 4 L 5 12 L 7 12 L 7 2 L 3 2 L 3 14 L 8 14 L 8 13 L 7 13 L 7 15 L 4 15 L 4 13 L 2 13 L 2 3 L 8 3 L 8 11 L 4 11 L 4 4 Z M 9 9 L 11 9 L 11 11 L 12 11 L 12 9 L 14 9 L 14 8 L 12 8 L 12 6 L 11 6 L 11 8 L 9 8 L 9 9 Z" fill="black" />
</svg>