<?xml version="1.0" encoding="UTF-8"?>
<svg width="8" height="8" viewBox="0 0 8 8" xmlns="http://www.w3.org/2000/svg">
  <clipPath id="clipPath">
    <path d="M 0 7 L 4 7 L 4 8 L 1 8 L 1 0 L 4 0 L 4 6 L 2 6 L 2 2 L 3 2 L 3 5 L 6 5 L 6 4 L 7 4 L 7 5 L 8 5 L 8 6 L 7 6 L 7 7 L 6 7 L 6 6 L 5 6 L 5 1 L 0 1 L 0 7 Z" fill="black" />
  </clipPath>
  <path d="M 0 7 L 4 7 L 4 8 L 1 8 L 1 0 L 4 0 L 4 6 L 2 6 L 2 2 L 3 2 L 3 5 L 6 5 L 6 4 L 7 4 L 7 5 L 8 5 L 8 6 L 7 6 L 7 7 L 6 7 L 6 6 L 5 6 L 5 1 L 0 1 L 0 7 Z" fill="black" />
</svg>