<?xml version="1.0" encoding="UTF-8"?>
<svg width="12" height="12" viewBox="0 0 12 12" xmlns="http://www.w3.org/2000/svg">
  <clipPath id="clipPath">
    <path d="M 2 0 L 5 0 L 5 10 L 4 10 L 4 2 L 3 2 L 3 9 L 6 9 L 6 1 L 1 1 L 1 11 L 5 11 L 5 12 L 2 12 L 2 0 Z M 7 6 L 9 6 L 9 4 L 10 4 L 10 6 L 12 6 L 12 7 L 10 7 L 10 9 L 9 9 L 9 7 L 7 7 L 7 6 Z" fill="black" />
  </clipPath>
  <path d="M 2 0 L 5 0 L 5 10 L 4 10 L 4 2 L 3 2 L 3 9 L 6 9 L 6 1 L 1 1 L 1 11 L 5 11 L 5 12 L 2 12 L 2 0 Z M 7 6 L 9 6 L 9 4 L 10 4 L 10 6 L 12 6 L 12 7 L 10 7 L 10 9 L 9 9 L 9 7 L 7 7 L 7 6 Z" fill="black" />
</svg>