<?xml version="1.0" encoding="UTF-8"?>
<svg width="10" height="10" viewBox="0 0 10 10" xmlns="http://www.w3.org/2000/svg">
  <clipPath id="clipPath">
    <path d="M 7 5 L 8 5 L 8 7 L 10 7 L 10 8 L 8 8 L 8 10 L 7 10 L 7 8 L 5 8 L 5 1 L 0 1 L 0 9 L 4 9 L 4 10 L 1 10 L 1 0 L 4 0 L 4 8 L 3 8 L 3 2 L 2 2 L 2 7 L 7 7 L 7 5 Z" fill="black" />
  </clipPath>
  <path d="M 7 5 L 8 5 L 8 7 L 10 7 L 10 8 L 8 8 L 8 10 L 7 10 L 7 8 L 5 8 L 5 1 L 0 1 L 0 9 L 4 9 L 4 10 L 1 10 L 1 0 L 4 0 L 4 8 L 3 8 L 3 2 L 2 2 L 2 7 L 7 7 L 7 5 Z" fill="black" />
</svg>