<?xml version="1.0" encoding="UTF-8"?>
<svg width="16" height="16" viewBox="0 0 16 16" xmlns="http://www.w3.org/2000/svg">
  <clipPath id="clipPath">
    <path d="M 11 3 L 12 3 L 12 6 L 15 6 L 15 8 L 14 8 L 14 7 L 13 7 L 13 8 L 12 8 L 12 9 L 13 9 L 13 10 L 14 10 L 14 13 L 12 13 L 12 12 L 11 12 L 11 11 L 10 11 L 10 10 L 9 10 L 9 12 L 7 12 L 7 9 L 8 9 L 8 13 L 6 13 L 6 8 L 5 8 L 5 9 L 3 9 L 3 8 L 1 8 L 1 6 L 2 6 L 2 5 L 3 5 L 3 6 L 10 6 L 10 4 L 11 4 L 11 3 Z" fill="black" />
  </clipPath>
  <path d="M 11 3 L 12 3 L 12 6 L 15 6 L 15 8 L 14 8 L 14 7 L 13 7 L 13 8 L 12 8 L 12 9 L 13 9 L 13 10 L 14 10 L 14 13 L 12 13 L 12 12 L 11 12 L 11 11 L 10 11 L 10 10 L 9 10 L 9 12 L 7 12 L 7 9 L 8 9 L 8 13 L 6 13 L 6 8 L 5 8 L 5 9 L 3 9 L 3 8 L 1 8 L 1 6 L 2 6 L 2 5 L 3 5 L 3 6 L 10 6 L 10 4 L 11 4 L 11 3 Z" fill="black" />
</svg>