<?xml version="1.0" encoding="UTF-8"?>
<svg width="16" height="16" viewBox="0 0 16 16" xmlns="http://www.w3.org/2000/svg">
  <clipPath id="clipPath">
    <path d="M 2 10 L 7 10 L 7 11 L 8 11 L 8 10 L 11 10 L 11 12 L 8 12 L 8 14 L 4 14 L 4 12 L 3 12 L 3 11 L 2 11 L 2 10 Z M 12 10 L 14 10 L 14 11 L 12 11 L 12 10 Z M 1 8 L 2 8 L 2 9 L 6 9 L 6 4 L 1 4 L 1 8 Z M 14 8 L 15 8 L 15 9 L 11 9 L 11 6 L 9 6 L 9 2 L 12 2 L 12 4 L 13 4 L 13 6 L 14 6 L 14 8 Z M 5 7 L 7 7 L 7 9 L 10 9 L 10 3 L 5 3 L 5 7 Z" fill="black" />
  </clipPath>
  <path d="M 2 10 L 7 10 L 7 11 L 8 11 L 8 10 L 11 10 L 11 12 L 8 12 L 8 14 L 4 14 L 4 12 L 3 12 L 3 11 L 2 11 L 2 10 Z M 12 10 L 14 10 L 14 11 L 12 11 L 12 10 Z M 1 8 L 2 8 L 2 9 L 6 9 L 6 4 L 1 4 L 1 8 Z M 14 8 L 15 8 L 15 9 L 11 9 L 11 6 L 9 6 L 9 2 L 12 2 L 12 4 L 13 4 L 13 6 L 14 6 L 14 8 Z M 5 7 L 7 7 L 7 9 L 10 9 L 10 3 L 5 3 L 5 7 Z" fill="black" />
</svg>