<?xml version="1.0" encoding="UTF-8"?>
<svg width="16" height="16" viewBox="0 0 16 16" xmlns="http://www.w3.org/2000/svg">
  <clipPath id="clipPath">
    <path d="M 10 12 L 11 12 L 11 14 L 14 14 L 14 13 L 15 13 L 15 10 L 14 10 L 14 8 L 13 8 L 13 5 L 12 5 L 12 3 L 14 3 L 14 4 L 11 4 L 11 3 L 1 3 L 1 8 L 6 8 L 6 10 L 10 10 L 10 12 Z M 2 6 L 8 6 L 8 7 L 2 7 L 2 6 Z M 9 6 L 10 6 L 10 7 L 9 7 L 9 6 Z M 8 9 L 9 9 L 9 8 L 8 8 L 8 9 Z M 3 4 L 10 4 L 10 5 L 3 5 L 3 4 Z" fill="black" />
  </clipPath>
  <path d="M 10 12 L 11 12 L 11 14 L 14 14 L 14 13 L 15 13 L 15 10 L 14 10 L 14 8 L 13 8 L 13 5 L 12 5 L 12 3 L 14 3 L 14 4 L 11 4 L 11 3 L 1 3 L 1 8 L 6 8 L 6 10 L 10 10 L 10 12 Z M 2 6 L 8 6 L 8 7 L 2 7 L 2 6 Z M 9 6 L 10 6 L 10 7 L 9 7 L 9 6 Z M 8 9 L 9 9 L 9 8 L 8 8 L 8 9 Z M 3 4 L 10 4 L 10 5 L 3 5 L 3 4 Z" fill="black" />
</svg>