<?xml version="1.0" encoding="UTF-8"?>
<svg width="16" height="16" viewBox="0 0 16 16" xmlns="http://www.w3.org/2000/svg">
  <clipPath id="clipPath">
    <path d="M 4 13 L 12 13 L 12 5 L 4 5 L 4 3 L 12 3 L 12 4 L 3 4 L 3 5 L 2 5 L 2 11 L 3 11 L 3 12 L 4 12 L 4 13 Z M 13 13 L 14 13 L 14 5 L 13 5 L 13 13 Z M 13 4 L 14 4 L 14 3 L 13 3 L 13 4 Z" fill="black" />
  </clipPath>
  <path d="M 4 13 L 12 13 L 12 5 L 4 5 L 4 3 L 12 3 L 12 4 L 3 4 L 3 5 L 2 5 L 2 11 L 3 11 L 3 12 L 4 12 L 4 13 Z M 13 13 L 14 13 L 14 5 L 13 5 L 13 13 Z M 13 4 L 14 4 L 14 3 L 13 3 L 13 4 Z" fill="black" />
</svg>